# xmcd
#
# Track frame offsets: 
#        150
#        17642
#        36612
#        51875
#        70385
#        91077
#        111112
#        134132
#        156402
#        180590
#        204725
#        225680
#        243612
#        263410
#        289300
#
# Disc length: 4055 seconds
#
# Revision: 3
# Processed by: cddbd v1.4PL0 Copyright (c) Steve Scherf et al.
# Submitted via: ExactAudioCopy v0.95a3
#
DISCID=e10fd50f
DTITLE=达明一派 - 为人民服务 Vol.3
DYEAR=1996
DGENRE=Pop
TTITLE0=末世情
TTITLE1=半生缘
TTITLE2=同党
TTITLE3=禁色
TTITLE4=没有张扬的命案
TTITLE5=你还爱我吗？
TTITLE6=你你我我
TTITLE7=血色蔷薇
TTITLE8=爱煞
TTITLE9=风流总被雨打风吹去 (末世情)
TTITLE10=模特儿
TTITLE11=惑星
TTITLE12=爱的作弄
TTITLE13=继续追寻
TTITLE14=你还爱我吗 (Live Unplugged Version)
EXTD=ID3G:   0
EXTT0=
EXTT1=
EXTT2=
EXTT3=
EXTT4=
EXTT5=
EXTT6=
EXTT7=
EXTT8=
EXTT9=
EXTT10=
EXTT11=
EXTT12=
EXTT13=
EXTT14=
PLAYORDER=
